<?xml version="1.0" standalone="no"?>
<!DOCTYPE svg PUBLIC "-//W3C//DTD SVG 20010904//EN"
 "http://www.w3.org/TR/2001/REC-SVG-20010904/DTD/svg10.dtd">
<svg version="1.0" xmlns="http://www.w3.org/2000/svg"
 width="200.000000pt" height="219.000000pt" viewBox="0 0 200.000000 219.000000"
 preserveAspectRatio="xMidYMid meet">

<g transform="translate(0.000000,219.000000) scale(0.100000,-0.100000)"
fill="#000000" stroke="none">
<path d="M1507 2071 c52 -9 77 -31 99 -87 13 -34 14 -50 6 -67 -10 -21 -11
-20 -11 10 -1 29 -7 35 -81 74 -68 36 -78 45 -67 58 10 12 9 13 -1 7 -7 -4
-54 -9 -105 -10 -134 -4 -143 -11 -153 -115 l-7 -60 46 -32 46 -32 -40 -18
c-52 -24 -75 -74 -61 -132 10 -39 10 -39 -16 -33 -61 14 -190 18 -241 7 -128
-27 -237 -116 -283 -229 -17 -44 -23 -77 -23 -142 0 -101 17 -143 96 -235 117
-136 135 -195 80 -258 -16 -18 -53 -46 -82 -62 -98 -53 -240 -35 -277 36 -21
39 -9 112 32 189 25 48 36 81 35 107 l-2 38 -7 -45 c-4 -25 -24 -75 -44 -112
-84 -153 -42 -251 114 -265 68 -7 139 14 199 57 50 37 71 76 71 133 0 46 -31
105 -97 182 -61 71 -94 153 -94 229 0 215 155 359 386 358 136 -1 233 -40 328
-131 73 -69 91 -110 91 -206 1 -105 -32 -176 -117 -255 -128 -117 -174 -167
-185 -200 -9 -28 -9 -32 1 -19 41 52 60 71 133 131 100 83 136 123 171 191 24
45 28 63 28 142 0 81 -3 95 -30 143 -36 66 -121 145 -191 180 -44 21 -53 31
-59 59 -12 65 55 153 107 139 12 -3 30 -10 38 -16 13 -9 13 -12 -1 -20 -19
-11 -45 -68 -35 -77 3 -3 6 1 6 9 0 27 40 68 67 68 28 0 133 25 176 42 15 6
27 16 27 23 0 6 9 20 20 30 35 31 44 81 25 131 -23 61 -65 94 -118 93 l-42 -2
42 -6z m-29 -68 c96 -52 96 -54 -24 -69 -53 -6 -58 -5 -134 42 -44 26 -77 51
-73 55 7 7 36 11 121 17 13 1 63 -19 110 -45z m-165 -43 l77 -45 -6 -60 c-4
-33 -8 -62 -10 -64 -2 -2 -39 18 -84 44 -80 47 -80 47 -80 88 0 48 10 89 19
85 4 -2 42 -23 84 -48z"/>
<path d="M1346 1600 c11 -14 43 -52 71 -85 68 -80 98 -131 117 -195 42 -143
-6 -259 -187 -448 -83 -87 -86 -91 -30 -43 214 181 289 326 249 480 -21 81
-67 150 -162 241 -43 41 -69 64 -58 50z"/>
<path d="M362 1313 c-112 -38 -152 -90 -131 -167 9 -34 21 -42 107 -76 18 -7
42 -24 52 -38 11 -13 20 -20 20 -14 0 26 -54 73 -96 83 -25 7 -51 21 -59 32
-18 26 -19 70 -3 100 11 21 11 21 19 2 4 -11 8 -34 8 -51 1 -34 16 -50 78 -84
37 -21 47 -22 79 -12 21 6 41 9 46 6 5 -3 7 0 6 7 -2 7 18 25 44 38 49 27 58
45 58 118 0 32 -4 36 -55 59 -68 29 -81 29 -173 -3z m161 -11 l38 -17 -77 -32
-77 -32 -55 28 -56 28 60 21 c72 25 117 26 167 4z m47 -76 l0 -44 -80 -41 -80
-42 0 54 0 55 73 30 c39 17 75 31 80 31 4 1 7 -19 7 -43z"/>
<path d="M910 1070 c0 -13 7 -20 20 -20 11 0 20 5 20 11 0 8 5 8 15 -1 21 -17
19 -73 -2 -92 -49 -43 -105 -25 -114 37 l-6 40 -2 -37 c-1 -40 16 -64 54 -74
31 -8 76 15 92 46 l13 25 0 -32 c0 -73 117 -86 149 -16 16 34 14 47 -10 77
-15 19 -29 26 -56 26 l-36 0 23 -20 c17 -15 26 -17 36 -9 36 30 49 -56 14 -91
-40 -40 -110 -15 -110 39 0 46 -51 111 -87 111 -7 0 -13 -9 -13 -20z"/>
<path d="M1550 980 c-19 -6 -11 -8 33 -9 120 -2 187 -78 187 -211 0 -66 -19
-121 -53 -158 -28 -30 -108 -71 -172 -88 -79 -22 -85 -20 -85 25 l0 38 49 6
c105 12 170 71 179 158 6 61 -2 90 -34 128 -35 41 -81 53 -135 34 -24 -8 -51
-12 -61 -10 -10 3 -18 1 -18 -3 0 -5 -9 -12 -20 -15 -16 -5 -20 -15 -20 -53 0
-70 16 -90 92 -122 66 -28 69 -29 113 -13 25 8 49 13 52 9 12 -11 -64 -74
-102 -85 -50 -14 -115 -14 -115 -1 0 19 -74 91 -113 111 -21 11 -60 23 -87 26
-45 5 -51 3 -79 -25 -34 -34 -38 -49 -18 -77 13 -16 14 -15 9 14 -13 88 109
96 215 15 66 -50 90 -143 58 -221 -12 -29 -13 -33 -1 -24 8 7 17 23 20 36 6
21 12 25 47 25 57 0 136 25 199 63 81 48 103 98 107 238 l4 108 -28 7 c-15 4
-43 20 -60 35 -48 41 -109 56 -163 39z m74 -101 c14 -11 26 -24 26 -28 0 -5
-21 -14 -46 -21 -42 -12 -53 -11 -118 10 l-71 23 65 18 c87 23 113 23 144 -2z
m41 -104 l0 -47 -48 -19 -48 -19 3 57 c3 54 4 57 38 69 19 7 40 11 45 10 6 -2
10 -24 10 -51z"/>
<path d="M332 863 c-21 -46 -27 -73 -27 -130 0 -86 17 -114 93 -156 93 -51
214 -47 340 10 30 14 56 22 59 20 2 -3 5 -32 6 -66 3 -83 -20 -106 -101 -105
-50 0 -71 7 -165 57 -114 60 -138 65 -190 43 -95 -40 -121 -160 -50 -228 39
-38 74 -49 104 -34 38 19 36 53 -6 92 -43 39 -43 66 0 75 22 5 24 7 8 8 -37 2
-53 -10 -53 -40 0 -20 9 -35 30 -51 34 -25 37 -60 7 -66 -39 -8 -67 9 -93 54
-24 41 -26 49 -16 83 15 48 60 90 103 97 26 4 48 -2 92 -25 31 -17 82 -44 113
-61 89 -47 203 -38 234 19 13 26 13 85 -1 171 -11 66 -11 71 11 104 13 18 35
41 49 50 14 8 21 16 15 16 -6 0 -30 -17 -54 -37 -35 -32 -43 -46 -47 -84 -5
-41 -9 -48 -42 -64 -61 -30 -132 -45 -211 -45 -87 0 -138 20 -185 69 -28 31
-30 37 -29 109 1 55 7 91 22 125 12 26 19 47 16 47 -3 0 -17 -26 -32 -57z"/>
<path d="M950 719 c0 -5 5 -7 10 -4 6 3 10 8 10 11 0 2 -4 4 -10 4 -5 0 -10
-5 -10 -11z"/>
<path d="M912 697 c-31 -37 -33 -69 -11 -174 27 -126 21 -162 -33 -206 -69
-55 -187 -44 -302 28 l-41 26 35 -32 c57 -51 126 -79 198 -79 106 0 175 49
188 136 l6 44 39 -35 c50 -45 60 -45 20 0 -54 62 -75 113 -75 185 -1 36 3 76
8 90 5 14 5 21 0 17 -5 -5 -17 -29 -26 -55 l-16 -47 -1 35 c-1 20 6 46 15 58
16 24 13 30 -4 9z"/>
<path d="M1069 695 c-9 -9 16 -101 35 -129 19 -29 93 -66 146 -73 22 -3 40 -9
40 -14 0 -16 -59 -39 -100 -39 -79 0 -135 51 -150 138 l-8 47 -1 -43 c-1 -50
9 -74 52 -120 55 -57 121 -63 202 -17 83 47 93 137 23 200 -18 17 -27 23 -20
15 32 -37 -9 -29 -53 11 -20 18 -21 18 -20 -8 0 -20 -6 -29 -25 -34 l-25 -7
26 -1 c15 -1 29 5 32 14 5 12 13 11 52 -8 48 -23 62 -48 51 -91 -5 -21 -9 -23
-58 -18 -64 6 -117 31 -152 72 -24 29 -30 45 -38 93 -2 11 -6 16 -9 12z"/>
<path d="M1366 379 c-21 -16 -35 -29 -30 -29 6 0 25 13 44 30 45 37 37 37 -14
-1z"/>
<path d="M1098 375 c-21 -8 -38 -12 -38 -9 0 3 -10 -4 -21 -15 -19 -17 -21
-27 -16 -68 8 -56 28 -77 146 -151 l74 -46 41 24 c118 67 116 65 116 123 0 53
0 53 -46 75 -28 14 -42 26 -38 34 5 8 2 9 -9 5 -9 -3 -40 5 -69 18 -60 28 -86
30 -140 10z m168 -41 l99 -46 -58 -29 -57 -29 -100 50 c-55 28 -100 54 -100
58 0 8 81 39 106 41 6 1 56 -20 110 -45z m-53 -108 c24 -13 27 -21 27 -66 0
-38 -3 -49 -12 -44 -7 4 -52 34 -100 66 -77 51 -88 62 -88 87 0 16 -3 36 -6
45 -4 9 24 -2 73 -29 43 -24 90 -51 106 -59z"/>
</g>
</svg>
