<?xml version="1.0" standalone="no"?>
<!DOCTYPE svg PUBLIC "-//W3C//DTD SVG 20010904//EN"
 "http://www.w3.org/TR/2001/REC-SVG-20010904/DTD/svg10.dtd">
<svg version="1.0" xmlns="http://www.w3.org/2000/svg"
 width="225.000000pt" height="225.000000pt" viewBox="0 0 225.000000 225.000000"
 preserveAspectRatio="xMidYMid meet">

<g transform="translate(0.000000,225.000000) scale(0.100000,-0.100000)"
fill="#000000" stroke="none">
<path d="M525 2136 c-103 -33 -179 -97 -221 -189 -26 -56 -29 -72 -29 -167 0
-97 2 -110 31 -170 49 -103 123 -170 208 -185 48 -9 55 -29 28 -76 -12 -21
-22 -43 -22 -49 0 -7 -14 -25 -31 -41 -32 -30 -38 -78 -9 -70 8 3 32 5 54 6
24 1 42 8 48 18 19 34 28 15 28 -56 0 -139 47 -251 144 -344 l49 -48 -34 43
c-73 94 -89 119 -108 177 -37 114 -39 251 -2 262 9 2 30 11 48 18 l32 14 6
-65 c4 -35 11 -64 15 -64 4 0 11 -20 14 -45 6 -36 11 -45 27 -45 11 0 19 -7
19 -16 0 -9 8 -18 18 -21 15 -3 18 -14 18 -46 -1 -36 2 -42 22 -45 12 -2 22
-10 22 -18 0 -8 9 -14 19 -14 28 0 36 -18 16 -40 -23 -26 -12 -53 35 -84 45
-30 50 -47 18 -68 -20 -13 -21 -18 -10 -39 7 -13 10 -16 8 -7 -4 12 4 23 24
33 32 16 37 34 20 66 -19 35 6 20 32 -20 22 -33 23 -40 11 -56 -17 -24 -17
-59 1 -74 11 -9 12 -7 9 13 -3 13 0 27 6 30 6 4 11 1 11 -7 0 -16 64 -77 82
-77 7 0 6 5 -2 15 -13 16 0 21 16 6 5 -5 25 -12 44 -15 28 -6 31 -5 18 4 -30
19 -20 31 12 15 16 -8 44 -14 62 -14 18 1 25 3 15 6 -15 4 -12 10 20 38 21 19
33 34 26 35 -6 0 -15 -4 -18 -10 -3 -5 -11 -10 -17 -10 -7 0 -6 6 2 15 11 13
8 15 -13 15 -16 0 -34 10 -47 27 l-21 26 36 29 c37 31 42 51 23 94 -11 23 -10
28 11 45 13 11 35 19 50 19 37 0 51 17 51 62 0 31 5 41 25 50 36 16 41 45 14
74 l-23 24 37 33 c39 37 53 73 42 114 -10 42 -24 53 -67 53 -40 0 -42 3 -52
56 l-5 31 70 -35 c85 -42 148 -52 184 -28 30 20 33 46 6 46 -11 0 -23 9 -26
21 -8 24 -12 21 49 44 61 22 117 79 157 161 30 61 31 66 27 171 -5 138 -27
191 -108 266 -69 64 -131 87 -235 87 -65 0 -81 -4 -140 -36 -37 -19 -74 -33
-81 -30 -20 8 -17 -18 4 -36 27 -24 56 -27 138 -16 64 9 82 7 120 -7 106 -40
166 -187 116 -284 -44 -86 -90 -71 -192 65 -83 111 -130 146 -204 152 -55 4
-117 -18 -145 -52 -18 -22 -26 -21 -79 16 -39 27 -59 33 -113 36 -100 6 -136
-14 -249 -139 -51 -57 -107 -113 -125 -123 -68 -42 -125 12 -125 119 0 84 44
158 115 195 46 23 60 25 183 25 128 0 134 1 153 24 26 31 24 43 -5 35 -17 -4
-45 5 -91 30 -65 34 -73 36 -164 35 -53 0 -114 -6 -136 -13z m296 -34 c31 -18
67 -32 80 -32 22 0 22 -1 7 -16 -17 -18 -43 -19 -188 -13 -66 3 -83 0 -132
-24 -127 -62 -180 -239 -98 -327 22 -24 37 -30 68 -30 46 0 54 7 191 159 92
102 124 121 201 121 61 0 104 -17 153 -60 20 -17 40 -29 45 -26 18 11 52 -25
52 -54 0 -16 4 -31 8 -34 17 -10 6 64 -13 85 -19 22 -18 22 25 -3 26 -15 49
-37 54 -52 9 -22 5 -31 -23 -60 -18 -19 -30 -39 -27 -45 9 -14 4 -14 -31 1
-52 22 -73 48 -74 92 0 36 -5 45 -40 73 -49 39 -99 50 -156 34 -62 -16 -109
-50 -185 -135 -84 -92 -181 -161 -199 -140 -7 8 -20 12 -30 9 -14 -5 -22 1
-29 19 -5 14 -16 26 -25 26 -10 0 -15 10 -15 33 0 18 -5 38 -12 45 -9 9 -9 15
0 24 8 8 8 17 1 30 -8 14 -7 28 1 49 7 16 10 36 6 44 -3 9 3 24 14 35 11 11
20 29 20 40 0 11 7 20 15 20 8 0 22 11 31 25 9 14 26 25 39 25 12 0 28 7 35
15 7 9 29 15 51 15 21 0 41 5 44 10 4 7 13 7 26 0 12 -7 25 -7 37 -1 12 6 29
5 52 -5 l35 -14 -25 19 c-39 30 -110 34 -257 15 -30 -4 -44 -12 -48 -25 -4
-10 -15 -19 -26 -19 -25 0 -89 -63 -89 -88 0 -11 -7 -25 -15 -32 -9 -7 -12
-22 -9 -39 4 -18 0 -32 -10 -40 -15 -13 -15 -16 -1 -38 14 -21 14 -24 0 -29
-14 -6 -14 -8 1 -25 16 -18 16 -20 -1 -39 -16 -17 -16 -20 -2 -20 22 0 31 -18
18 -34 -9 -10 -8 -15 4 -20 13 -4 14 -10 5 -26 -9 -17 -8 -20 9 -20 14 0 19
-5 15 -15 -4 -10 0 -15 14 -15 16 0 19 -5 15 -22 -5 -19 -3 -21 8 -10 20 19
29 14 29 -15 1 -27 1 -27 15 -9 14 19 15 18 23 -4 6 -15 11 -19 16 -12 12 20
24 13 19 -10 -5 -22 -4 -22 16 2 l20 25 -11 -42 c-10 -40 -12 -42 -42 -36
-117 22 -211 133 -237 278 -33 190 63 352 244 411 27 9 77 13 137 11 86 -2
100 -6 151 -35z m839 12 c65 -19 151 -96 187 -169 31 -61 42 -185 23 -264 -15
-65 -80 -163 -125 -191 -75 -46 -115 -43 -115 9 0 21 2 23 10 11 8 -13 10 -12
10 4 0 15 3 16 14 7 11 -10 16 -8 21 9 6 20 7 21 21 3 13 -17 13 -17 14 6 0
16 4 21 15 17 10 -4 15 1 15 14 0 14 5 18 17 13 12 -5 15 -2 10 10 -4 11 -1
17 9 17 11 0 13 6 9 21 -5 13 -2 25 6 29 10 7 10 11 0 23 -10 13 -8 16 9 22
20 6 20 8 5 24 -14 16 -14 19 0 31 11 9 12 16 4 26 -7 8 -7 19 -1 31 7 13 6
24 -3 36 -7 9 -10 28 -8 41 3 13 0 27 -6 30 -6 4 -11 17 -11 29 -1 26 -53 87
-74 87 -8 0 -21 8 -28 19 -28 39 -249 50 -272 13 -2 -4 39 -8 92 -9 76 -1 97
-4 104 -17 5 -9 20 -16 33 -16 14 0 26 -7 30 -19 3 -10 15 -21 25 -24 11 -3
20 -14 20 -25 0 -11 7 -25 15 -32 8 -6 14 -24 14 -38 1 -15 2 -52 5 -82 2 -30
-1 -61 -7 -67 -5 -7 -7 -22 -4 -34 4 -15 0 -23 -14 -26 -10 -3 -19 -14 -19
-24 0 -13 -7 -19 -24 -19 -13 0 -27 -7 -30 -16 -5 -13 -10 -12 -37 8 -44 32
-126 113 -176 175 -52 62 -119 98 -170 90 -19 -4 -38 -8 -40 -11 -3 -3 11 -19
30 -36 42 -37 52 -61 37 -90 -9 -18 -8 -20 14 -20 20 0 27 -7 32 -27 4 -16 15
-37 25 -48 25 -28 32 -67 17 -86 -14 -18 -88 -35 -88 -21 0 5 11 30 25 55 24
46 21 63 -8 51 -42 -16 -46 -109 -7 -164 18 -26 23 -28 45 -18 14 6 25 20 25
31 0 16 3 17 15 7 12 -10 15 -10 15 2 0 8 -5 19 -12 26 -9 9 -9 15 0 24 19 19
14 52 -13 93 -19 28 -23 40 -15 50 13 15 57 6 96 -20 30 -19 78 -90 93 -138 7
-21 28 -58 47 -83 19 -24 34 -53 34 -64 0 -10 9 -25 20 -33 28 -19 15 -27 -43
-27 -38 0 -69 9 -124 36 -74 37 -99 63 -89 91 5 11 2 13 -11 8 -10 -4 -26 -10
-36 -12 -10 -3 -16 -8 -15 -12 63 -131 94 -166 136 -158 38 8 52 -8 52 -58 0
-48 -29 -81 -100 -115 -39 -19 -41 -21 -14 -16 24 4 37 0 54 -19 35 -37 21
-55 -42 -55 -29 0 -83 -6 -120 -14 -63 -13 -117 -10 -147 9 -27 16 -69 86 -65
108 2 12 1 16 -2 8 -5 -10 -13 -6 -30 15 -15 18 -8 0 19 -50 60 -113 72 -119
224 -110 134 7 143 4 129 -51 -6 -22 -12 -25 -49 -25 -43 0 -156 -16 -191 -27
-17 -5 -16 -7 10 -18 18 -7 36 -9 46 -4 27 14 58 11 58 -6 0 -9 7 -29 15 -45
13 -26 13 -30 -5 -52 -11 -12 -19 -19 -20 -14 0 5 -9 1 -20 -9 -19 -17 -19
-16 -15 21 3 28 3 32 -3 15 -4 -14 -28 -39 -52 -57 -37 -26 -45 -36 -43 -60 2
-28 1 -28 -12 -10 -8 11 -15 31 -15 45 -1 18 -11 32 -33 47 -25 16 -32 26 -31
51 1 22 -3 30 -14 29 -9 0 -18 9 -21 22 -6 21 -7 22 -28 7 -14 -10 -23 -27
-23 -42 0 -25 -1 -26 -20 -8 -15 13 -17 22 -10 36 23 42 0 84 -49 91 -34 4
-49 32 -33 58 15 25 8 40 -19 40 -10 0 -19 7 -19 15 0 9 -11 20 -25 25 -20 8
-25 16 -25 45 0 19 -4 35 -9 35 -5 0 -12 29 -16 65 l-7 65 44 49 43 49 18 -34
c23 -45 30 -43 11 2 -11 25 -14 53 -10 88 l6 51 -18 -46 c-39 -95 -104 -154
-202 -183 -29 -9 -63 -22 -74 -29 -26 -17 -96 -29 -96 -17 0 5 11 17 25 28 14
11 25 23 25 28 0 4 8 26 18 48 11 23 24 66 30 98 6 31 25 85 42 120 66 134
128 167 340 187 47 4 98 13 114 20 16 6 30 10 31 9 1 -2 8 -14 14 -26 7 -13
29 -31 49 -39 55 -23 65 -33 50 -50 -10 -13 -9 -15 6 -12 10 2 24 12 30 21 8
14 6 21 -9 32 -19 14 -19 16 18 49 20 19 37 43 37 52 0 21 -74 95 -95 95 -28
0 -24 19 9 39 39 24 101 27 149 7 32 -13 91 -74 180 -186 54 -69 86 -86 125
-68 44 21 64 72 59 151 -6 93 -42 152 -116 190 -53 26 -59 27 -161 21 -90 -6
-107 -4 -119 10 -11 14 -11 16 1 16 8 0 45 16 82 35 56 29 78 35 130 35 34 0
86 -7 116 -16z m-416 -464 c-6 -6 -10 -2 -11 12 -2 16 1 18 10 9 7 -7 8 -14 1
-21z m86 -130 c0 -5 -2 -10 -4 -10 -3 0 -8 5 -11 10 -3 6 -1 10 4 10 6 0 11
-4 11 -10z m76 -110 c7 -24 12 -46 10 -48 -2 -2 -15 17 -29 42 -14 25 -22 47
-19 51 13 12 26 -3 38 -45z"/>
<path d="M945 1681 c-16 -8 -36 -17 -43 -20 -8 -3 -30 -29 -50 -56 l-37 -50
35 29 c19 16 38 37 42 47 11 28 28 23 28 -7 0 -15 5 -24 12 -22 20 7 50 54 46
75 -3 18 -5 18 -33 4z"/>
<path d="M1090 1668 c0 -4 11 -13 24 -19 14 -7 34 -34 50 -68 14 -31 23 -45
20 -31 -13 56 -49 118 -71 123 -13 2 -23 0 -23 -5z"/>
<path d="M1062 1608 c9 -7 18 -22 20 -33 2 -17 -3 -20 -37 -23 -67 -4 -85 -11
-85 -31 0 -25 46 -61 74 -60 20 1 20 2 1 6 -26 7 -56 33 -49 44 10 16 32 9 37
-12 9 -32 51 -22 55 14 2 15 9 27 17 27 11 0 12 7 4 32 -8 31 -24 48 -43 48
-6 0 -3 -6 6 -12z"/>
<path d="M1018 1603 c7 -3 16 -2 19 1 4 3 -2 6 -13 5 -11 0 -14 -3 -6 -6z"/>
<path d="M871 1514 c0 -11 3 -14 6 -6 3 7 2 16 -1 19 -3 4 -6 -2 -5 -13z"/>
<path d="M1090 1470 c-9 -6 -10 -10 -3 -10 6 0 15 5 18 10 8 12 4 12 -15 0z"/>
<path d="M1132 1334 c-21 -15 -28 -47 -16 -78 7 -19 34 -9 34 14 0 20 26 34
42 23 7 -3 8 -1 4 5 -9 15 -39 15 -54 0 -9 -9 -12 -9 -12 -1 0 17 41 43 69 43
22 0 90 -35 151 -78 15 -11 21 -12 16 -4 -5 8 -36 32 -69 53 -67 43 -125 51
-165 23z"/>
<path d="M1184 1255 c-3 -8 -3 -19 1 -25 8 -13 35 -13 35 0 0 19 29 10 49 -16
12 -15 21 -21 21 -15 0 20 -57 71 -80 71 -11 0 -23 -7 -26 -15z"/>
<path d="M970 1219 c0 -5 5 -7 10 -4 6 3 10 8 10 11 0 2 -4 4 -10 4 -5 0 -10
-5 -10 -11z"/>
<path d="M289 402 c-24 -21 -32 -39 -36 -73 -10 -90 41 -145 130 -142 72 3 77
8 77 74 l0 59 -45 0 c-33 0 -45 -4 -45 -15 0 -9 9 -15 25 -15 22 0 25 -4 25
-35 0 -34 -1 -35 -38 -35 -74 0 -109 59 -79 132 17 41 56 56 102 38 20 -8 31
-8 39 0 18 19 -23 40 -76 40 -38 0 -54 -6 -79 -28z"/>
<path d="M510 310 c0 -113 1 -120 20 -120 17 0 19 8 22 83 l3 82 63 -82 c41
-54 70 -83 82 -83 19 0 20 8 20 120 0 113 -1 120 -20 120 -18 0 -20 -7 -20
-80 0 -44 -3 -80 -7 -80 -5 0 -35 36 -68 80 -86 115 -95 111 -95 -40z"/>
<path d="M770 336 c0 -84 3 -98 23 -121 17 -20 32 -26 63 -27 91 -1 114 31
114 162 0 73 -2 80 -20 80 -18 0 -20 -7 -20 -77 0 -95 -14 -127 -56 -131 -52
-5 -64 16 -64 119 0 82 -1 89 -20 89 -19 0 -20 -7 -20 -94z"/>
<path d="M1120 310 c0 -98 3 -120 15 -120 11 0 15 18 17 78 l3 77 30 -55 c40
-73 56 -74 92 -9 l28 53 3 -72 c3 -64 5 -72 22 -72 19 0 20 8 20 121 0 107 -2
120 -17 117 -9 -2 -33 -33 -53 -70 -20 -37 -39 -70 -42 -74 -3 -3 -25 29 -48
70 -60 109 -70 103 -70 -44z"/>
<path d="M1590 310 c0 -113 1 -120 20 -120 16 0 20 7 20 38 l1 37 34 -37 c24
-26 44 -38 62 -38 l27 0 -37 38 c-20 21 -37 42 -37 47 0 5 14 24 32 42 32 33
32 33 8 33 -13 0 -39 -14 -57 -32 l-33 -32 0 72 c0 65 -2 72 -20 72 -19 0 -20
-7 -20 -120z"/>
<path d="M1423 350 c-34 -14 -20 -42 14 -29 14 5 34 7 44 4 21 -7 26 -35 7
-35 -32 0 -87 -22 -92 -37 -4 -9 0 -26 9 -39 13 -20 23 -23 75 -22 l60 1 0 63
c0 51 -4 68 -20 84 -21 21 -60 25 -97 10z m77 -105 c0 -23 -34 -36 -55 -21
-24 17 -11 36 26 36 19 0 29 -5 29 -15z"/>
<path d="M1798 340 c-30 -23 -40 -62 -26 -102 12 -34 35 -48 82 -48 46 0 66 9
59 26 -3 9 -13 12 -29 8 -33 -8 -74 3 -74 21 0 11 13 15 55 15 52 0 55 1 55
25 0 33 -42 75 -73 75 -13 0 -36 -9 -49 -20z m80 -32 c3 -15 -4 -18 -32 -18
-38 0 -44 8 -24 28 17 17 52 11 56 -10z"/>
</g>
</svg>
